<svg width="24" height="24" viewBox="0 0 24 24" fill="none"> <path d="M15.1765 10.4118C15.1765 12.1661 13.7543 13.5882 12 13.5882M15.1765 10.4118C15.1765 8.65744 13.7543 7.23529 12 7.23529M15.1765 10.4118L19.4117 10.4117M12 13.5882C10.2457 13.5882 8.82352 12.1661 8.82352 10.4118M12 13.5882L12 21M8.82352 10.4118C8.82352 8.65744 10.2457 7.23529 12 7.23529M8.82352 10.4118L4.58826 10.4117M12 7.23529L12 3M14.3319 8.20844L16.2995 6.24081M14.3319 12.6152L16.2995 14.5828M9.66849 8.20844L7.70086 6.24081M9.66849 12.6044L7.70086 14.5721M8.82352 21H15.1765" stroke="#000000" stroke-width="1.5" stroke-linecap="round" stroke-linejoin="round"/> </svg>