<svg width="24" height="24" viewBox="0 0 24 24" fill="none" xmlns="http://www.w3.org/2000/svg">
  <path d="M12 2.8C14.2 3.2 15.2 5.4 14.7 7.6C14.4 9.2 13.2 10.2 12 10.2C10.8 10.2 9.6 9.2 9.3 7.6C8.8 5.4 9.8 3.2 12 2.8Z" stroke="#000000" stroke-width="1.5" stroke-linecap="round" stroke-linejoin="round"/>
  <path d="M9.4 6C7 6.7 6 9.2 7.1 11.3C8.1 13.2 9.9 13.9 12 13.9C14.1 13.9 15.9 13.2 16.9 11.3C18 9.2 17 6.7 14.6 6" stroke="#000000" stroke-width="1.5" stroke-linecap="round" stroke-linejoin="round"/>
  <path d="M10.2 5.9C11 5 12.8 5 13.7 6.1" stroke="#000000" stroke-width="1.5" stroke-linecap="round" stroke-linejoin="round"/>
  <path d="M12 13.9V21.4" stroke="#000000" stroke-width="1.5" stroke-linecap="round" stroke-linejoin="round"/>
  <path d="M12 18C10.7 16.1 8.6 15.3 6 15.7C6.9 18 9.1 19.1 12 18.6" stroke="#000000" stroke-width="1.5" stroke-linecap="round" stroke-linejoin="round"/>
</svg>
