<svg width="24" height="24" viewBox="0 0 24 24" fill="none"> <path d="M21.4171 17.9722C21.4171 17.9722 18.1259 14.8027 17.7106 13.3599C16.9227 10.6231 14.6309 2.90597 14.6309 2.90597M2.58274 17.9722C2.58274 17.9722 5.87391 14.8027 6.28928 13.3599C7.07718 10.6231 9.36897 2.90597 9.36897 2.90597M17.5837 22C17.5837 22 14.1989 19.0507 13.0565 17.1007C12.0013 15.2995 12.0013 12.9524 12.0013 12.9524C12.0013 12.9524 12.0013 15.2995 10.946 17.1007C9.8036 19.0507 6.41881 22 6.41881 22M12.0013 14.3181L12.0013 3.35202M17.6004 21.9983L21.4387 17.9938M6.41431 21.9993L2.56128 17.9907M15.0546 19.5062L18.9078 15.5329M8.94519 19.5058L5.092 15.5325M14.6372 2.92816C14.5366 2.62356 14.331 2.36464 14.0571 2.19765C13.7833 2.03066 13.4589 1.96649 13.1421 2.0166C12.8253 2.06671 12.5366 2.22784 12.3276 2.47119C12.1186 2.71454 12.003 3.02427 12.0013 3.34504C11.9997 3.02427 11.884 2.71454 11.675 2.47119C11.466 2.22784 11.1773 2.06671 10.8605 2.0166C10.5437 1.96649 10.2193 2.03066 9.94546 2.19765C9.67158 2.36464 9.466 2.62356 9.36544 2.92816" stroke="#000000" stroke-width="1.5" stroke-linecap="round" stroke-linejoin="round"/> </svg>